<svg width="30" height="30" viewBox="0 0 30 30" fill="none" xmlns="http://www.w3.org/2000/svg">
<g clip-path="url(#clip0)">
<path d="M29.2908 17.0658C28.9841 16.9892 28.6774 17.0658 28.409 17.2575C27.4122 18.101 26.2621 18.7911 24.9969 19.2511C23.8084 19.7112 22.5049 19.9412 21.1247 19.9412C18.0192 19.9412 15.1822 18.6761 13.1502 16.6441C11.1182 14.6122 9.85307 11.7751 9.85307 8.66964C9.85307 7.36612 10.0831 6.10094 10.4665 4.95078C10.8882 3.72394 11.5016 2.61211 12.3067 1.65364C12.6518 1.23191 12.5751 0.618494 12.1534 0.273445C11.885 0.0817513 11.5783 0.0050737 11.2716 0.0817513C8.0128 0.963543 5.17574 2.91882 3.14378 5.52586C1.1885 8.09456 0 11.2767 0 14.7655C0 18.9444 1.68691 22.74 4.4473 25.5004C7.20769 28.2608 11.0032 29.9477 15.1822 29.9477C18.7093 29.9477 21.9681 28.7208 24.5752 26.6889C27.2205 24.6186 29.1375 21.6665 29.9426 18.2927C30.1343 17.7176 29.8276 17.1808 29.2908 17.0658ZM23.425 25.0786C21.2013 26.8422 18.3643 27.9157 15.2588 27.9157C11.6167 27.9157 8.31952 26.4205 5.94251 24.0435C3.56551 21.6665 2.07029 18.3694 2.07029 14.7272C2.07029 11.6984 3.0671 8.93801 4.79235 6.71436C5.98085 5.18081 7.47606 3.91563 9.20131 3.03384C9.00961 3.45556 8.81792 3.87729 8.66456 4.33736C8.16616 5.71755 7.93613 7.17443 7.93613 8.70798C7.93613 12.3502 9.43134 15.6856 11.8083 18.0626C14.1853 20.4396 17.5208 21.9349 21.163 21.9349C22.7732 21.9349 24.3068 21.6665 25.7253 21.1297C26.2237 20.9381 26.7221 20.7464 27.1822 20.5163C26.2621 22.2799 24.9969 23.8518 23.425 25.0786Z" fill="white"/>
</g>
<defs>
<clipPath id="clip0">
<rect width="30" height="30" fill="white"/>
</clipPath>
</defs>
</svg>
