<svg width="30" height="30" viewBox="0 0 30 30" fill="none" xmlns="http://www.w3.org/2000/svg">
<path d="M6.31192 8.24092C6.84904 8.77669 7.71335 8.78487 8.24912 8.2491C8.78079 7.71743 8.78488 6.85721 8.23957 6.3119L6.331 4.40333C5.79251 3.86484 4.93093 3.85666 4.3938 4.39379C3.86077 4.92546 3.85668 5.78432 4.40335 6.33099L6.31192 8.24092Z" fill="white"/>
<path d="M28.6245 13.6367H25.9252C25.1631 13.6367 24.5469 14.242 24.5469 15C24.5469 15.7539 25.1509 16.3632 25.9252 16.3632H28.6245C29.3865 16.3632 30 15.7593 30 15C30 14.2475 29.3947 13.6367 28.6245 13.6367Z" fill="white"/>
<path d="M5.45306 15C5.45306 14.2475 4.84777 13.6367 4.07616 13.6367H1.37553C0.614832 13.6367 0 14.242 0 15C0 15.7539 0.603926 16.3632 1.37553 16.3632H4.07616C4.83686 16.3632 5.45306 15.7593 5.45306 15Z" fill="white"/>
<path d="M15 6.81631C10.4835 6.81631 6.8204 10.4794 6.8204 14.9959C6.8204 19.5124 10.4835 23.1755 15 23.1755C19.5151 23.1755 23.1796 19.5124 23.1796 14.9959C23.1796 10.4794 19.5151 6.81631 15 6.81631ZM15 20.449C11.9885 20.449 9.54693 18.0074 9.54693 14.9959C9.54693 11.9845 11.9885 9.54284 15 9.54284C18.0114 9.54284 20.453 11.9845 20.453 14.9959C20.453 18.0074 18.0114 20.449 15 20.449Z" fill="white"/>
<path d="M6.3119 21.7604L4.40333 23.669C3.86484 24.2075 3.85666 25.0691 4.39379 25.6062C4.92683 26.1379 5.78568 26.142 6.33099 25.5967L8.23956 23.6881C8.77805 23.1496 8.78623 22.288 8.2491 21.7509C7.71607 21.2165 6.85721 21.2151 6.3119 21.7604Z" fill="white"/>
<path d="M23.6881 8.24092L25.5966 6.33099C26.1351 5.7925 26.1406 4.93091 25.6062 4.39379C25.0718 3.86212 24.2143 3.85803 23.669 4.40333L21.7604 6.3119C21.2219 6.85039 21.2151 7.71334 21.7509 8.2491C22.2853 8.78077 23.1428 8.78486 23.6881 8.24092Z" fill="white"/>
<path d="M15 24.5469C14.2461 24.5469 13.6367 25.1522 13.6367 25.9252V28.6245C13.6367 29.3865 14.242 30 15 30C15.7539 30 16.3632 29.3974 16.3632 28.6245V25.9252C16.3632 25.1631 15.7593 24.5469 15 24.5469Z" fill="white"/>
<path d="M23.6881 21.7604C23.1496 21.2219 22.288 21.2151 21.7509 21.7509C21.2192 22.2853 21.2137 23.1428 21.7604 23.6881L23.669 25.5966C24.2075 26.1351 25.0691 26.1406 25.6062 25.6062C26.1392 25.0745 26.1433 24.2143 25.5966 23.669L23.6881 21.7604Z" fill="white"/>
<path d="M15 5.45306C15.7539 5.45306 16.3632 4.84913 16.3632 4.07616V1.3769C16.3632 0.616196 15.7593 0 15 0C14.2461 0 13.6367 0.605289 13.6367 1.3769V4.07616C13.6367 4.83686 14.242 5.45306 15 5.45306Z" fill="white"/>
</svg>
