<svg width="425" height="92" viewBox="0 0 425 92" fill="none" xmlns="http://www.w3.org/2000/svg">
            <mask id="mask0" mask-type="alpha" maskUnits="userSpaceOnUse" x="0" y="0" width="425" height="92">
                <rect width="425" height="92" rx="18" fill="#F77E4B" />
            </mask>
            <g mask="url(#mask0)">
                <rect width="425" height="92" rx="18" fill="#E5896A" />
            </g>
            <g clip-path="url(#clip0)">
                <path
                    d="M326.5 136C378.691 136 421 95.7056 421 46C421 -3.70563 378.691 -44 326.5 -44C274.309 -44 232 -3.70563 232 46C232 95.7056 274.309 136 326.5 136Z"
                    fill="#E69967" />
                <path
                    d="M370 131C423.572 131 467 89.5863 467 38.5C467 -12.5863 423.572 -54 370 -54C316.428 -54 273 -12.5863 273 38.5C273 89.5863 316.428 131 370 131Z"
                    fill="#EBA66A" />
                <path
                    d="M434 24C434 52.1666 411.166 75 383 75C354.833 75 332 52.1666 332 24C332 -4.16653 354.833 -27 383 -27C411.166 -27 434 -4.16653 434 24Z"
                    fill="#EFC663" />
            </g>
            <path
                d="M22.3119 19.2409C22.849 19.7767 23.7134 19.7849 24.2491 19.2491C24.7808 18.7174 24.7849 17.8572 24.2396 17.3119L22.331 15.4033C21.7925 14.8648 20.9309 14.8567 20.3938 15.3938C19.8608 15.9255 19.8567 16.7843 20.4033 17.331L22.3119 19.2409Z"
                fill="white" />
            <path
                d="M44.6245 24.6367H41.9252C41.1631 24.6367 40.5469 25.242 40.5469 26C40.5469 26.7539 41.1509 27.3632 41.9252 27.3632H44.6245C45.3865 27.3632 46 26.7593 46 26C46 25.2475 45.3947 24.6367 44.6245 24.6367Z"
                fill="white" />
            <path
                d="M21.4531 26C21.4531 25.2475 20.8478 24.6367 20.0762 24.6367H17.3755C16.6148 24.6367 16 25.242 16 26C16 26.7539 16.6039 27.3632 17.3755 27.3632H20.0762C20.8369 27.3632 21.4531 26.7593 21.4531 26Z"
                fill="white" />
            <path
                d="M31 17.8163C26.4835 17.8163 22.8204 21.4794 22.8204 25.9959C22.8204 30.5124 26.4835 34.1755 31 34.1755C35.5151 34.1755 39.1796 30.5124 39.1796 25.9959C39.1796 21.4794 35.5151 17.8163 31 17.8163ZM31 31.449C27.9885 31.449 25.5469 29.0074 25.5469 25.9959C25.5469 22.9845 27.9885 20.5428 31 20.5428C34.0114 20.5428 36.453 22.9845 36.453 25.9959C36.453 29.0074 34.0114 31.449 31 31.449Z"
                fill="white" />
            <path
                d="M22.3119 32.7604L20.4033 34.669C19.8648 35.2075 19.8567 36.0691 20.3938 36.6062C20.9268 37.1379 21.7857 37.142 22.331 36.5967L24.2396 34.6881C24.778 34.1496 24.7862 33.288 24.2491 32.7509C23.7161 32.2165 22.8572 32.2151 22.3119 32.7604Z"
                fill="white" />
            <path
                d="M39.6881 19.2409L41.5966 17.331C42.1351 16.7925 42.1406 15.9309 41.6062 15.3938C41.0718 14.8621 40.2143 14.858 39.669 15.4033L37.7604 17.3119C37.2219 17.8504 37.2151 18.7133 37.7509 19.2491C38.2853 19.7808 39.1428 19.7849 39.6881 19.2409Z"
                fill="white" />
            <path
                d="M31 35.5469C30.2461 35.5469 29.6367 36.1522 29.6367 36.9252V39.6245C29.6367 40.3865 30.242 41 31 41C31.7539 41 32.3632 40.3974 32.3632 39.6245V36.9252C32.3632 36.1631 31.7593 35.5469 31 35.5469Z"
                fill="white" />
            <path
                d="M39.6881 32.7604C39.1496 32.2219 38.288 32.2151 37.7509 32.7509C37.2192 33.2853 37.2137 34.1428 37.7604 34.6881L39.669 36.5966C40.2075 37.1351 41.0691 37.1406 41.6062 36.6062C42.1392 36.0745 42.1433 35.2143 41.5966 34.669L39.6881 32.7604Z"
                fill="white" />
            <path
                d="M31 16.4531C31.7539 16.4531 32.3632 15.8491 32.3632 15.0762V12.3769C32.3632 11.6162 31.7593 11 31 11C30.2461 11 29.6367 11.6053 29.6367 12.3769V15.0762C29.6367 15.8369 30.242 16.4531 31 16.4531Z"
                fill="white" />
            <defs>
                <clipPath id="clip0">
                    <rect x="232" width="193" height="92" rx="18" fill="white" />
                </clipPath>
            </defs>
        </svg>