<svg width="193" height="92" viewBox="0 0 193 92" fill="none" xmlns="http://www.w3.org/2000/svg">
<g clip-path="url(#clip0)">
<path d="M94.5 136C146.691 136 189 95.7056 189 46C189 -3.70563 146.691 -44 94.5 -44C42.3091 -44 0 -3.70563 0 46C0 95.7056 42.3091 136 94.5 136Z" fill="#E69967"/>
<path d="M138 131C191.572 131 235 89.5863 235 38.5C235 -12.5863 191.572 -54 138 -54C84.4284 -54 41 -12.5863 41 38.5C41 89.5863 84.4284 131 138 131Z" fill="#EBA66A"/>
<path d="M202 24C202 52.1666 179.166 75 151 75C122.833 75 100 52.1666 100 24C100 -4.16653 122.833 -27 151 -27C179.166 -27 202 -4.16653 202 24Z" fill="#EFC663"/>
</g>
<defs>
<clipPath id="clip0">
<rect width="193" height="92" rx="18" fill="white"/>
</clipPath>
</defs>
</svg>
